HIERARCHY
ROOT Hips
{
 OFFSET 0.000000 0.000000 0.000000
 CHANNELS 6 Xposition Yposition Zposition Yrotation Xrotation Zrotation
 JOINT Chest
 {
  OFFSET 0.000000 9.585900 0.002600
  CHANNELS 3 Yrotation Xrotation Zrotation
  JOINT Chest2
  {
   OFFSET 0.000000 9.601200 -0.005300
   CHANNELS 3 Yrotation Xrotation Zrotation
   JOINT Chest3
   {
    OFFSET 0.000000 9.561800 0.000000
    CHANNELS 3 Yrotation Xrotation Zrotation
    JOINT Chest4
    {
     OFFSET 0.000000 9.552100 0.000000
     CHANNELS 3 Yrotation Xrotation Zrotation
     JOINT Neck
     {
      OFFSET 0.000000 14.453000 0.000000
      CHANNELS 3 Yrotation Xrotation Zrotation
      JOINT Head
      {
       OFFSET 0.000000 8.936500 -0.011300
       CHANNELS 3 Yrotation Xrotation Zrotation
       End Site
       {
        OFFSET 0.000000 17.073600 -0.006000
       }
      }
     }
     JOINT RightCollar
     {
      OFFSET -2.921100 9.558500 0.000000
      CHANNELS 3 Yrotation Xrotation Zrotation
      JOINT RightShoulder
      {
       OFFSET -13.519700 0.000000 0.000000
       CHANNELS 3 Yrotation Xrotation Zrotation
       JOINT RightElbow
       {
        OFFSET 0.000000 -29.696600 0.000000
        CHANNELS 3 Yrotation Xrotation Zrotation
        JOINT RightWrist
        {
         OFFSET 0.000000 -24.004700 0.000000
         CHANNELS 3 Yrotation Xrotation Zrotation
         End Site
         {
          OFFSET 0.000000 -17.728500 0.000000
         }
        }
       }
      }
     }
     JOINT LeftCollar
     {
      OFFSET 2.921100 9.558500 0.000000
      CHANNELS 3 Yrotation Xrotation Zrotation
      JOINT LeftShoulder
      {
       OFFSET 13.519700 0.000000 0.000000
       CHANNELS 3 Yrotation Xrotation Zrotation
       JOINT LeftElbow
       {
        OFFSET 0.000000 -29.696600 0.000000
        CHANNELS 3 Yrotation Xrotation Zrotation
        JOINT LeftWrist
        {
         OFFSET 0.000000 -24.004700 0.000000
         CHANNELS 3 Yrotation Xrotation Zrotation
         End Site
         {
          OFFSET 0.000000 -17.728500 0.000000
         }
        }
       }
      }
     }
    }
   }
  }
 }
 JOINT RightHip
 {
  OFFSET -7.771700 -0.012900 -0.001300
  CHANNELS 3 Yrotation Xrotation Zrotation
  JOINT RightKnee
  {
   OFFSET 0.000000 -40.869800 0.001200
   CHANNELS 3 Yrotation Xrotation Zrotation
   JOINT RightAnkle
   {
    OFFSET 0.000000 -39.717900 0.002100
    CHANNELS 3 Yrotation Xrotation Zrotation
    JOINT RightToe
    {
     OFFSET 0.000000 -4.965400 11.033500
     CHANNELS 3 Yrotation Xrotation Zrotation
     End Site
     {
      OFFSET 0.000000 -1.423100 5.872300
     }
    }
   }
  }
 }
 JOINT LeftHip
 {
  OFFSET 7.771700 -0.012900 -0.001300
  CHANNELS 3 Yrotation Xrotation Zrotation
  JOINT LeftKnee
  {
   OFFSET 0.000000 -40.869800 0.001200
   CHANNELS 3 Yrotation Xrotation Zrotation
   JOINT LeftAnkle
   {
    OFFSET 0.000000 -39.717900 0.002100
    CHANNELS 3 Yrotation Xrotation Zrotation
    JOINT LeftToe
    {
     OFFSET 0.000000 -4.965400 11.033500
     CHANNELS 3 Yrotation Xrotation Zrotation
     End Site
     {
      OFFSET 0.000000 -1.423100 5.872300
     }
    }
   }
  }
 }
}
MOTION
Frames: 15
Frame Time: 0.008333
-16.034911 52.227276 32.023271 -178.806798 -35.162365 -0.432092 0.481639 14.256361 -0.245115 0.053291 1.221406 0.039938 0.041749 2.092465 0.033791 0.432721 12.785607 0.344043 0.143048 24.136282 -1.566899 0.427037 0.413948 -1.767630 11.303653 11.527593 13.404795 71.650257 -4.846096 -54.023274 135.009429 -30.400109 -167.200244 6.170353 -10.697656 -6.895637 -11.771747 9.929312 -16.368908 -69.111380 -5.036860 51.013912 -119.727685 -36.224797 167.980015 3.973664 -12.513867 -5.670804 -9.147560 -47.210360 -0.798302 -46.936276 82.681439 -55.047058 -3.562147 -2.753032 6.171578 0.285875 -0.038274 -0.351033 7.438557 -44.935413 -6.567222 24.118667 83.585161 29.390050 -3.437956 -10.328903 1.623114 0.132231 0.444062 0.073036
-16.035323 52.225021 32.004791 -178.777190 -35.172491 -0.427968 0.427352 14.278952 -0.292854 0.056867 1.220519 0.045643 0.040479 2.094461 0.029171 0.412175 12.798256 0.328663 0.145749 24.151509 -1.576505 0.427053 0.426909 -1.793980 11.306203 11.559524 13.398552 71.630625 -4.882773 -53.997378 135.050247 -30.385222 -167.206105 6.147735 -10.697572 -6.868202 -11.731922 9.923567 -16.387370 -69.084684 -5.041098 51.006662 -119.738501 -36.211587 167.965504 3.986151 -12.525683 -5.693143 -9.176951 -47.208701 -0.794352 -47.366780 82.756362 -55.517948 -3.625311 -3.033598 6.309451 0.290678 0.002809 -0.340472 7.460641 -44.923291 -6.604192 24.134656 83.606490 29.413435 -3.439865 -10.346051 1.633156 0.129299 0.438422 0.068414
-16.032783 52.220186 31.990716 -178.780261 -35.153212 -0.423410 0.415231 14.267277 -0.312811 0.048717 1.224456 0.041488 0.052022 2.088977 0.036416 0.392309 12.805442 0.305442 0.138007 24.174037 -1.588781 0.425490 0.435959 -1.817928 11.338774 11.549907 13.416931 71.583598 -4.884758 -53.953706 135.072986 -30.437972 -167.222839 6.142965 -10.761437 -6.851036 -11.698557 9.921889 -16.406587 -69.063858 -5.045213 51.001497 -119.726713 -36.216992 167.954007 4.002940 -12.535698 -5.717863 -9.201480 -47.236721 -0.759277 -47.750380 82.819595 -55.930110 -3.689409 -3.313332 6.418982 0.299782 0.046613 -0.317068 7.481275 -44.943626 -6.612657 24.221238 83.623309 29.500384 -3.444485 -10.372102 1.644076 0.123320 0.445351 0.063770
-16.029583 52.214879 31.978058 -178.786510 -35.128453 -0.420225 0.415964 14.245008 -0.318280 0.035640 1.232259 0.026392 0.060449 2.084024 0.045116 0.379320 12.809858 0.280174 0.127398 24.191051 -1.601725 0.420227 0.440281 -1.839972 11.351685 11.558171 13.423206 71.562739 -4.898614 -53.920730 135.088979 -30.430865 -167.224958 6.123237 -10.773023 -6.845358 -11.665491 9.916027 -16.421386 -69.058477 -5.023517 51.004298 -119.704460 -36.220286 168.001676 4.040754 -12.538077 -5.776169 -9.213336 -47.266687 -0.734852 -48.167974 82.875403 -56.361258 -3.735834 -3.629471 6.527745 0.298406 0.109388 -0.300906 7.501889 -44.968725 -6.620321 24.369752 83.634235 29.651453 -3.448352 -10.403812 1.650443 0.112735 0.458486 0.060346
-16.027367 52.210614 31.964507 -178.779620 -35.116036 -0.416329 0.391395 14.243081 -0.348988 0.035244 1.232124 0.024934 0.053269 2.094221 0.020299 0.400173 12.797531 0.287323 0.105472 24.202472 -1.615021 0.420275 0.433609 -1.866794 11.355308 11.558258 13.421592 71.548148 -4.915029 -53.881642 135.097260 -30.422427 -167.224087 6.101077 -10.787790 -6.840588 -11.634685 9.906735 -16.431775 -69.062300 -4.999500 51.003056 -119.697513 -36.211174 168.009228 4.050040 -12.530639 -5.778377 -9.223705 -47.284879 -0.725532 -48.680841 82.921902 -56.887448 -3.775827 -3.964168 6.632223 0.299613 0.170180 -0.282486 7.528557 -44.979205 -6.644066 24.470947 83.644615 29.763992 -3.457857 -10.429531 1.654512 0.114768 0.466043 0.059288
-16.027661 52.206396 31.951284 -178.741261 -35.107045 -0.411440 0.344762 14.246673 -0.397712 0.035529 1.231529 0.023690 0.059339 2.090256 0.022869 0.401611 12.795002 0.265679 0.055174 24.205793 -1.691740 0.445964 0.418483 -1.843619 11.356260 11.556483 13.418923 71.539519 -4.928933 -53.846467 135.094099 -30.398737 -167.225698 6.073730 -10.786654 -6.830363 -11.603803 9.896906 -16.437395 -69.069446 -5.028905 51.017899 -119.713688 -36.228303 167.989597 4.060783 -12.524101 -5.777292 -9.243473 -47.307825 -0.732845 -49.285239 82.961878 -57.512234 -3.846485 -4.270458 6.718154 0.337455 0.192933 -0.244669 7.545214 -44.988092 -6.690221 24.494287 83.660839 29.797701 -3.484553 -10.453788 1.651944 0.152169 0.470862 0.069381
-16.023095 52.200750 31.940346 -178.735927 -35.085939 -0.411435 0.338275 14.237628 -0.420576 0.035897 1.230825 0.022070 0.060836 2.081436 0.037852 0.402039 12.793813 0.251481 0.035286 24.195248 -1.735621 0.437894 0.404564 -1.863372 11.365681 11.557897 13.396395 71.527251 -4.939848 -53.819930 135.082142 -30.382873 -167.231950 6.051122 -10.786499 -6.820403 -11.574075 9.880232 -16.460634 -69.085397 -5.032468 51.039106 -119.702152 -36.243645 167.977879 4.070756 -12.515030 -5.771726 -9.259967 -47.338669 -0.697485 -49.883844 82.996020 -58.132433 -3.900936 -4.592805 6.809752 0.354639 0.225208 -0.215695 7.560288 -45.013995 -6.695560 24.557988 83.678562 29.862284 -3.499502 -10.473531 1.658968 0.159191 0.474080 0.070829
-16.017986 52.196800 31.927245 -178.749036 -35.084829 -0.399420 0.342602 14.257309 -0.459617 0.038714 1.231241 0.013597 0.063646 2.065472 0.057125 0.408556 12.787608 0.254227 0.030422 24.189269 -1.747554 0.420202 0.369539 -1.915453 11.373708 11.558051 13.366821 71.527358 -4.948104 -53.800363 135.056778 -30.389555 -167.228252 6.036578 -10.799276 -6.827515 -11.543086 9.859124 -16.482844 -69.096312 -5.024408 51.055185 -119.673864 -36.247640 167.964787 4.086459 -12.512313 -5.777839 -9.257246 -47.355855 -0.665546 -50.474857 83.031002 -58.746386 -3.962989 -4.873514 6.892101 0.381040 0.218959 -0.182882 7.568530 -45.016747 -6.687638 24.710640 83.691779 30.001323 -3.508386 -10.499840 1.669239 0.151896 0.480120 0.067077
-16.012715 52.191547 31.916353 -178.756166 -35.070967 -0.387195 0.345398 14.247253 -0.473472 0.040873 1.239999 -0.003754 0.062330 2.064876 0.054372 0.436462 12.786259 0.194622 0.026796 24.148887 -1.738120 0.420893 0.336423 -1.922168 11.390697 11.517422 13.365967 71.512700 -4.998395 -53.764751 135.034509 -30.390795 -167.212545 6.025150 -10.800359 -6.840234 -11.521212 9.839571 -16.431536 -69.097352 -5.018441 51.072067 -119.684683 -36.266378 167.959911 4.056617 -12.525122 -5.773163 -9.257426 -47.388163 -0.640542 -51.006367 83.066861 -59.297019 -4.019565 -5.127564 6.964484 0.403372 0.194015 -0.150417 7.570683 -45.030758 -6.688027 24.768142 83.703808 30.048930 -3.507951 -10.527372 1.674431 0.153534 0.488973 0.063479
-16.007909 52.184776 31.908120 -178.765085 -35.040797 -0.367646 0.352210 14.230338 -0.507781 0.041197 1.239796 -0.005506 0.065882 2.062131 0.051108 0.458499 12.779705 0.181048 0.013520 24.103927 -1.778996 0.420870 0.296257 -1.927872 11.394759 11.493335 13.345013 71.495982 -5.047929 -53.737480 135.034483 -30.390185 -167.188636 6.011127 -10.803458 -6.839573 -11.508617 9.818565 -16.425730 -69.103852 -4.990329 51.073617 -119.597817 -36.231043 167.939502 4.031390 -12.552444 -5.792337 -9.270305 -47.446228 -0.584804 -51.603787 83.076123 -59.929707 -4.133201 -5.299551 7.003710 0.491196 0.117517 -0.085133 7.577285 -45.060143 -6.698401 24.818852 83.715037 30.091460 -3.523666 -10.569259 1.670336 0.172106 0.513013 0.068234
-15.995059 52.174206 31.905817 -178.855727 -34.969679 -0.346897 0.441197 14.189146 -0.512375 0.044268 1.223618 0.013787 0.058415 2.057403 0.044111 0.495890 12.773937 0.172219 0.002062 24.057863 -1.801659 0.413657 0.240756 -1.949449 11.384827 11.471639 13.348389 71.494186 -5.035028 -53.737545 135.012654 -30.378304 -167.178751 5.990908 -10.807248 -6.833510 -11.502784 9.796519 -16.419704 -69.110216 -4.962869 51.074020 -119.506938 -36.191499 167.922625 4.064281 -12.551759 -5.829589 -9.264285 -47.525624 -0.484012 -51.909478 83.080383 -60.253480 -4.134365 -5.517306 7.062288 0.464930 0.100999 -0.067112 7.612319 -45.136029 -6.655276 24.891676 83.724455 30.159951 -3.503650 -10.600945 1.676681 0.149255 0.518593 0.058365
-15.989220 52.169303 31.896131 -178.858929 -34.955807 -0.335204 0.450961 14.187775 -0.531567 0.051610 1.225832 0.009378 0.079249 2.067062 0.021574 0.508633 12.752793 0.181523 -0.017149 24.031741 -1.791805 0.407186 0.152873 -2.007878 11.358007 11.456605 13.375333 71.558573 -4.932279 -53.800521 134.919191 -30.392108 -167.186816 5.984784 -10.792069 -6.861454 -11.500339 9.775479 -16.413889 -69.121103 -4.960958 51.086381 -119.449409 -36.179439 167.904748 4.070815 -12.562308 -5.860478 -9.280900 -47.553449 -0.459069 -52.286285 83.101531 -60.648660 -4.174083 -5.688621 7.097301 0.476494 0.037280 -0.031570 7.620396 -45.148963 -6.667560 24.964845 83.731851 30.233809 -3.508905 -10.623285 1.679265 0.151853 0.527143 0.053970
-15.990033 52.167753 31.882385 -178.799627 -34.975129 -0.321445 0.394044 14.211770 -0.583365 0.068404 1.235596 -0.001470 0.083680 2.064076 0.019666 0.535668 12.743921 0.172191 -0.030996 23.963730 -1.834911 0.395789 0.097446 -2.014406 11.349675 11.434260 13.366043 71.575077 -4.900629 -53.843888 134.845264 -30.401472 -167.174328 5.940742 -10.805607 -6.849389 -11.503456 9.757432 -16.408336 -69.130985 -4.981504 51.109988 -119.410036 -36.183213 167.886612 4.046770 -12.585886 -5.887096 -9.306656 -47.554370 -0.497654 -52.714374 83.125868 -61.095687 -4.245831 -5.808407 7.108019 0.528945 -0.064912 0.022190 7.588712 -45.121518 -6.713776 25.032934 83.732933 30.285653 -3.535564 -10.653367 1.688902 0.176075 0.547218 0.048772
-15.983726 52.159239 31.879246 -178.838146 -34.919686 -0.295529 0.444511 14.172289 -0.594933 0.071523 1.233374 -0.004264 0.088686 2.061550 0.017941 0.566447 12.736214 0.164468 -0.042168 23.889650 -1.877444 0.383206 0.038115 -2.020048 11.336803 11.403548 13.354277 71.574729 -4.889589 -53.874331 134.802656 -30.394484 -167.154147 5.907995 -10.809287 -6.846145 -11.531106 9.750211 -16.385268 -69.137950 -4.981520 51.114451 -119.338171 -36.155585 167.876497 4.042143 -12.597647 -5.913722 -9.313805 -47.623707 -0.453662 -52.912196 83.128811 -61.314595 -4.252069 -5.902119 7.125145 0.526377 -0.144799 0.052969 7.604721 -45.178459 -6.719643 25.105281 83.738461 30.353889 -3.530303 -10.677396 1.677127 0.177747 0.557580 0.053508
-15.976942 52.154899 31.870821 -178.858586 -34.905419 -0.287020 0.480267 14.172686 -0.601665 0.079955 1.233905 -0.005148 0.077562 2.052275 0.024841 0.582494 12.732951 0.160583 -0.035160 23.830881 -1.923487 0.371492 -0.039835 -2.040916 11.384232 11.353994 13.289933 71.510657 -4.944731 -53.849614 134.776024 -30.324776 -167.051076 5.891426 -10.734962 -6.937003 -11.535526 9.740812 -16.379606 -69.134671 -5.006984 51.131901 -119.299335 -36.144621 167.871416 4.041682 -12.603253 -5.937947 -9.335445 -47.649487 -0.412738 -53.122227 83.137732 -61.544132 -4.246754 -5.953166 7.131931 0.522284 -0.251969 0.083359 7.588150 -45.194669 -6.710979 25.161003 83.749951 30.415962 -3.528194 -10.701770 1.659805 0.191342 0.561727 0.054983
